<svg version="1.1" xmlns="http://www.w3.org/2000/svg" xmlns:xlink="http://www.w3.org/1999/xlink" width="49.18618" height="59.49501" viewBox="0,0,49.18618,59.49501"><g transform="translate(-107.93856,-218.08785)"><g stroke-miterlimit="10"><path d="M112.99077,258.03953c0,-4.34497 -0.11551,-28.33409 -0.11551,-36.08557c0,-3.22393 0.33913,-3.86611 4.2288,-3.86611c7.80455,0 31.49772,0 35.92253,0c3.55223,0 4.09816,1.47879 4.09816,3.90818c0,4.18123 -0.03851,28.30437 -0.03851,36.09602c0,2.82461 -0.88852,3.8201 -4.05965,3.8201c-4.42481,0 -28.04097,-0.0385 -35.84552,-0.0385c-3.57635,0 -4.19029,-1.29301 -4.19029,-3.83412z" fill="#ffffff" stroke="none" stroke-width="0" stroke-linecap="round" stroke-linejoin="round"/><path d="M108.14217,240.84987c1.32256,-0.03219 2.53802,-0.10148 3.24712,-0.06429c0.48391,0.02538 6.02287,0.12552 5.97804,-0.2101c-0.01796,-0.13445 -3.63922,0.58712 -3.94288,0.65238c-1.7924,0.3852 -3.63929,0.67896 -5.48588,0.82954" fill="none" stroke="none" stroke-width="0.5" stroke-linecap="round" stroke-linejoin="miter"/><path d="M121.20148,231.49742c-0.96623,-1.28171 -1.62273,-2.91401 -2.43461,-4.33479" fill="none" stroke="none" stroke-width="0.5" stroke-linecap="round" stroke-linejoin="miter"/><path d="M132.95918,245.18633h13.52157" fill="none" stroke="#ffffff" stroke-width="1" stroke-linecap="round" stroke-linejoin="miter"/><g><g stroke-linecap="round"><path d="M125.98915,229.71521c0,-1.29047 1.19452,-2.66857 2.75147,-2.66857c3.12399,0 10.30344,0 12.07459,0c1.42188,0 2.88602,1.33929 2.88602,2.74769c0,1.67365 -0.01542,9.21206 -0.01542,12.33088c0,1.69116 -1.04073,2.46331 -2.74603,2.46331c-1.77115,0 -8.73295,-0.01541 -11.85694,-0.01541c-1.43153,0 -3.04745,-0.89125 -3.04745,-2.65577c0,0 -0.04624,-9.09939 -0.04624,-12.20213z" fill="#00ff15" stroke="none" stroke-width="0" stroke-linejoin="round"/><g fill="none" stroke="#ffffff" stroke-width="1" stroke-linejoin="miter"><path d="M128.76465,230.14425l11.94068,-0.12734"/><path d="M128.79266,232.7707l11.94067,-0.12734"/><path d="M128.79266,232.7707l11.94067,-0.12734"/><path d="M128.81953,235.28996l11.94068,-0.12735"/><path d="M128.81953,235.28996l11.94068,-0.12735"/><path d="M128.84753,237.91641l11.94069,-0.12735"/><path d="M128.87669,240.65007l11.94069,-0.12734"/></g></g><g stroke-linecap="round"><path d="M136.09229,231.3062c0.48811,-1.19459 2.11514,-2.01849 3.55641,-1.42959c2.89189,1.18162 9.53797,3.8972 11.17754,4.56712c1.31624,0.53781 2.16504,2.3314 1.63232,3.63517c-0.63305,1.54931 -3.49867,8.52183 -4.67834,11.40895c-0.63967,1.56552 -1.89516,1.88665 -3.47376,1.24164c-1.63957,-0.66992 -8.07832,-3.31743 -10.97021,-4.49905c-1.32519,-0.54146 -2.48394,-1.97771 -1.81653,-3.61114c0,0 3.39898,-8.44085 4.57256,-11.31309z" fill="#ff0000" stroke="none" stroke-width="0" stroke-linejoin="round"/><g fill="none" stroke="#ffffff" stroke-width="1" stroke-linejoin="miter"><path d="M138.71585,233.06731l11.06435,4.4918"/><path d="M137.72784,235.50101l11.06435,4.49179"/><path d="M137.72784,235.50101l11.06435,4.49179"/><path d="M136.78016,237.83538l11.06435,4.4918"/><path d="M136.78016,237.83538l11.06435,4.4918"/><path d="M135.79215,240.26908l11.06435,4.4918"/><path d="M134.76381,242.80211l11.06435,4.4918"/></g></g><g stroke-linecap="round"><path d="M117.2701,237.63973c-0.45983,-1.20576 0.16522,-2.91904 1.61997,-3.47383c2.91893,-1.11317 9.62713,-3.67144 11.28203,-4.30255c1.32854,-0.50665 3.17381,0.22301 3.67566,1.53895c0.59637,1.56379 3.26812,8.61286 4.37946,11.52697c0.60261,1.58015 -0.09467,2.67247 -1.68803,3.28012c-1.6549,0.63111 -8.16521,3.09742 -11.08413,4.21059c-1.33756,0.5101 -3.16501,0.25315 -3.79376,-1.39554c0,0 -3.28559,-8.48564 -4.39119,-11.38471z" fill="#ffea00" stroke="none" stroke-width="0" stroke-linejoin="round"/><g fill="none" stroke="#ffffff" stroke-width="1" stroke-linejoin="miter"><path d="M120.20325,237.16621l11.07586,-4.46333"/><path d="M121.18501,239.60244l11.07586,-4.46334"/><path d="M121.18501,239.60244l11.07586,-4.46334"/><path d="M122.12668,241.93924l11.07586,-4.46334"/><path d="M122.12668,241.93924l11.07586,-4.46334"/><path d="M123.10843,244.37547l11.07586,-4.46334"/><path d="M124.13025,246.91114l11.07587,-4.46334"/></g></g><path d="M120.80748,240.15213c0,-1.10727 -0.25601,-2.28974 2.30598,-2.28974c5.14055,0 21.72676,0 24.64121,0c2.33972,0 2.19826,1.14917 2.19826,2.35763c0,1.43606 -0.02537,7.90434 -0.02537,10.58042c0,1.45108 0.09763,2.03508 -2.29705,2.11363c-2.91273,0.09554 -19.22475,-0.01322 -24.3653,-0.01322c-2.3556,0 -2.38164,-0.76474 -2.38164,-2.27877c0,0 -0.07608,-7.80767 -0.07608,-10.46995z" fill="#0083ff" stroke="none" stroke-width="0" stroke-linecap="round" stroke-linejoin="round"/><text transform="translate(121.83995,249.31666) scale(0.28296,0.28296)" font-size="40" xml:space="preserve" fill="#ffffff" stroke="none" stroke-width="1" stroke-linecap="butt" stroke-linejoin="miter" font-family="Sans Serif" font-weight="normal" text-anchor="start"><tspan x="0" dy="0">N</tspan></text><g fill="none" stroke="#ffffff" stroke-width="1" stroke-linecap="round" stroke-linejoin="miter"><path d="M132.95918,245.18633h13.52157"/><path d="M132.95918,241.57358h11.71057"/><path d="M132.95918,248.9948h11.71057"/></g></g><text transform="translate(118.53168,273.67224) scale(0.31285,0.31285)" font-size="40" xml:space="preserve" fill="#ffffff" stroke="none" stroke-width="1" stroke-linecap="butt" stroke-linejoin="miter" font-family="Sans Serif" font-weight="normal" text-anchor="start"><tspan x="0" dy="0">News</tspan></text></g></g></svg>